<?xml version="1.0" encoding="utf-8" standalone="no"?>
<!DOCTYPE svg PUBLIC "-//W3C//DTD SVG 1.1//EN"
  "http://www.w3.org/Graphics/SVG/1.1/DTD/svg11.dtd">
<!-- Created with matplotlib (http://matplotlib.org/) -->
<svg height="576pt" version="1.1" viewBox="0 0 576 576" width="576pt" xmlns="http://www.w3.org/2000/svg" xmlns:xlink="http://www.w3.org/1999/xlink">
 <defs>
  <style type="text/css">
*{stroke-linecap:butt;stroke-linejoin:round;}
  </style>
 </defs>
 <g id="figure_1">
  <g id="patch_1">
   <path d="M 0 576 
L 576 576 
L 576 0 
L 0 0 
z
" style="fill:#ffffff;"/>
  </g>
  <g id="axes_1">
   <g id="patch_2">
    <path d="M 472.32 288 
C 472.32 263.795319 467.552206 239.825999 458.289475 217.46379 
C 449.026745 195.101581 435.449216 174.781372 418.333922 157.666078 
C 401.218628 140.550784 380.898419 126.973255 358.53621 117.710525 
C 336.174001 108.447794 312.204681 103.68 288 103.68 
C 263.795319 103.68 239.825999 108.447794 217.46379 117.710525 
C 195.101581 126.973255 174.781372 140.550784 157.666078 157.666078 
C 140.550784 174.781372 126.973255 195.101581 117.710525 217.46379 
C 108.447794 239.825999 103.68 263.795319 103.68 288 
C 103.68 312.204681 108.447794 336.174001 117.710525 358.53621 
C 126.973255 380.898419 140.550784 401.218628 157.666078 418.333922 
C 174.781372 435.449216 195.101581 449.026745 217.46379 458.289475 
C 239.825999 467.552206 263.795319 472.32 288 472.32 
C 312.204681 472.32 336.174001 467.552206 358.53621 458.289475 
C 380.898419 449.026745 401.218628 435.449216 418.333922 418.333922 
C 435.449216 401.218628 449.026745 380.898419 458.289475 358.53621 
C 467.552206 336.174001 472.32 312.204681 472.32 288 
M 288 288 
M 472.32 288 
z
" style="fill:#16afeb;"/>
   </g>
   <g id="patch_3">
    <path d="M 459.4176 288 
C 459.4176 265.489647 454.983551 243.198179 446.369212 222.401324 
C 437.754873 201.60447 425.127771 182.706676 409.210547 166.789453 
C 393.293324 150.872229 374.39553 138.245127 353.598676 129.630788 
C 332.801821 121.016449 310.510353 116.5824 288 116.5824 
C 265.489647 116.5824 243.198179 121.016449 222.401324 129.630788 
C 201.60447 138.245127 182.706676 150.872229 166.789453 166.789453 
C 150.872229 182.706676 138.245127 201.60447 129.630788 222.401324 
C 121.016449 243.198179 116.5824 265.489647 116.5824 288 
C 116.5824 310.510353 121.016449 332.801821 129.630788 353.598676 
C 138.245127 374.39553 150.872229 393.293324 166.789453 409.210547 
C 182.706676 425.127771 201.60447 437.754873 222.401324 446.369212 
C 243.198179 454.983551 265.489647 459.4176 288 459.4176 
C 310.510353 459.4176 332.801821 454.983551 353.598676 446.369212 
C 374.39553 437.754873 393.293324 425.127771 409.210547 409.210547 
C 425.127771 393.293324 437.754873 374.39553 446.369212 353.598676 
C 454.983551 332.801821 459.4176 310.510353 459.4176 288 
M 288 288 
M 459.4176 288 
z
" style="fill:#ffffff;"/>
   </g>
   <g id="patch_4">
    <path d="M 288.103888 122.112033 
C 288.086573 122.112022 288.069258 122.112014 288.051944 122.112008 
C 288.034629 122.112003 288.017315 122.112 288 122.112 
L 288 288 
L 288.103888 122.112033 
z
" style="fill:#ffffff;"/>
   </g>
   <g id="patch_5">
    <path d="M 297.759802 122.399351 
C 296.152304 122.304612 294.543512 122.233284 292.933937 122.18539 
C 291.324362 122.137496 289.714175 122.113041 288.103888 122.112033 
L 288 288 
L 297.759802 122.399351 
z
" style="fill:#00ff00;"/>
   </g>
   <g id="patch_6">
    <path d="M 344.471204 132.019771 
C 336.968077 129.303334 329.278716 127.131818 321.463034 125.522143 
C 313.647352 123.912469 305.7257 122.868828 297.759802 122.399351 
L 288 288 
L 344.471204 132.019771 
z
" style="fill:#ffffff;"/>
   </g>
   <g id="patch_7">
    <path d="M 396.755419 162.735929 
C 389.075303 156.067982 380.798203 150.12046 372.028744 144.968539 
C 363.259284 139.816619 354.03457 135.4821 344.471204 132.019771 
L 288 288 
L 396.755419 162.735929 
z
" style="fill:#00ff00;"/>
   </g>
   <g id="patch_8">
    <path d="M 413.722681 179.775068 
C 411.105485 176.734724 408.378863 173.790319 405.548194 170.947659 
C 402.717525 168.104999 399.784672 165.365954 396.755419 162.735929 
L 288 288 
L 413.722681 179.775068 
z
" style="fill:#ffffff;"/>
   </g>
   <g id="patch_9">
    <path d="M 423.619642 192.469161 
C 422.074052 190.274975 420.47544 188.118622 418.825217 186.002005 
C 417.174995 183.885388 415.473649 181.809131 413.722681 179.775068 
L 288 288 
L 423.619642 192.469161 
z
" style="fill:#00ff00;"/>
   </g>
   <g id="patch_10">
    <path d="M 433.93511 209.121788 
C 432.381716 206.247804 430.743762 203.420335 429.023392 200.64308 
C 427.303022 197.865825 425.500986 195.139997 423.619642 192.469161 
L 288 288 
L 433.93511 209.121788 
z
" style="fill:#ffffff;"/>
   </g>
   <g id="patch_11">
    <path d="M 453.853111 291.402081 
C 454.146113 277.118087 452.592591 262.8559 449.231155 248.969969 
C 445.869718 235.084038 440.728446 221.690357 433.93511 209.121788 
L 288 288 
L 453.853111 291.402081 
z
" style="fill:#00ff00;"/>
   </g>
   <g id="patch_12">
    <path d="M 324.999151 449.70928 
C 361.043078 441.462415 393.315332 421.396719 416.656723 392.719989 
C 439.998114 364.043259 453.09481 328.369639 453.853111 291.402081 
L 288 288 
L 324.999151 449.70928 
z
" style="fill:#ffffff;"/>
   </g>
   <g id="patch_13">
    <path d="M 304.818168 453.033263 
C 308.211841 452.687421 311.594039 452.236983 314.959937 451.68259 
C 318.325835 451.128198 321.673832 450.470115 324.999151 449.70928 
L 288 288 
L 304.818168 453.033263 
z
" style="fill:#00ff00;"/>
   </g>
   <g id="patch_14">
    <path d="M 304.680359 453.047248 
C 304.703328 453.044927 304.726297 453.042601 304.749265 453.04027 
C 304.772233 453.037939 304.795201 453.035603 304.818168 453.033263 
L 288 288 
L 304.680359 453.047248 
z
" style="fill:#ffffff;"/>
   </g>
   <g id="patch_15">
    <path d="M 290.372016 453.871041 
C 292.761281 453.836873 295.149529 453.751086 297.535088 453.613739 
C 299.920647 453.476392 302.30296 453.287518 304.680359 453.047248 
L 288 288 
L 290.372016 453.871041 
z
" style="fill:#00ff00;"/>
   </g>
   <g id="patch_16">
    <path d="M 288.000007 122.112 
C 266.116005 122.111999 244.446756 126.442416 224.243576 134.853185 
C 204.040396 143.263954 185.699802 155.590002 170.280893 171.119547 
C 154.861983 186.649092 142.667378 205.077343 134.401268 225.34014 
C 126.135158 245.602937 121.959778 267.302593 122.11624 289.186035 
C 122.272702 311.069477 126.757936 332.707211 135.312936 352.849741 
C 143.867936 372.992271 156.324797 391.244269 171.964185 406.551753 
C 187.603573 421.859238 206.11854 433.921776 226.439919 442.042803 
C 246.761298 450.163829 268.490252 454.183958 290.372016 453.871041 
L 288 288 
L 288.000007 122.112 
z
" style="fill:#ffffff;"/>
   </g>
   <g id="patch_17">
    <path d="M 439.1424 288 
C 439.1424 268.152162 435.232809 248.497319 427.63737 230.160308 
C 420.041931 211.823296 408.908357 195.160725 394.873816 181.126184 
C 380.839275 167.091643 364.176704 155.958069 345.839692 148.36263 
C 327.502681 140.767191 307.847838 136.8576 288 136.8576 
C 268.152162 136.8576 248.497319 140.767191 230.160308 148.36263 
C 211.823296 155.958069 195.160725 167.091643 181.126184 181.126184 
C 167.091643 195.160725 155.958069 211.823296 148.36263 230.160308 
C 140.767191 248.497319 136.8576 268.152162 136.8576 288 
C 136.8576 307.847838 140.767191 327.502681 148.36263 345.839692 
C 155.958069 364.176704 167.091643 380.839275 181.126184 394.873816 
C 195.160725 408.908357 211.823296 420.041931 230.160308 427.63737 
C 248.497319 435.232809 268.152162 439.1424 288 439.1424 
C 307.847838 439.1424 327.502681 435.232809 345.839692 427.63737 
C 364.176704 420.041931 380.839275 408.908357 394.873816 394.873816 
C 408.908357 380.839275 420.041931 364.176704 427.63737 345.839692 
C 435.232809 327.502681 439.1424 307.847838 439.1424 288 
M 288 288 
M 439.1424 288 
z
" style="fill:#ffffff;"/>
   </g>
   <g id="matplotlib.axis_1"/>
   <g id="matplotlib.axis_2"/>
   <g id="line2d_1">
    <path clip-path="url(#pf87f174392)" d="M 288 112.896 
L 288 103.68 
" style="fill:none;stroke:#000000;stroke-linecap:square;stroke-width:1.5;"/>
   </g>
   <g id="text_1">
    <text style="font-family:Arial;font-size:10px;font-style:normal;font-weight:normal;" transform="translate(293.416045 193.399979)rotate(-88.295624)">Protein_1</text>
   </g>
   <g id="text_2">
    <text style="font-family:Arial;font-size:10px;font-style:normal;font-weight:normal;" transform="translate(338.220763 207.648444)rotate(-59.566431)">Protein_2</text>
   </g>
   <g id="text_3">
    <text style="font-family:Arial;font-size:10px;font-style:normal;font-weight:normal;" transform="translate(364.288508 231.799608)rotate(-37.941792)">Protein_4</text>
   </g>
   <g id="text_4">
    <text style="font-family:Arial;font-size:10px;font-style:normal;font-weight:normal;" transform="translate(380.672002 268.241522)rotate(-13.608094)">Protein_6</text>
   </g>
   <g id="text_5">
    <text style="font-family:Arial;font-size:10px;font-style:normal;font-weight:normal;" transform="translate(300.376357 379.13905)rotate(-279.353133)">Protein_10</text>
   </g>
   <g id="text_6">
    <text style="font-family:Arial;font-size:10px;font-style:normal;font-weight:normal;" transform="translate(290.688855 379.936232)rotate(-273.295124)">Protein_12</text>
   </g>
   <g id="text_7">
    <text style="font-family:Arial;font-size:16px;font-style:normal;font-weight:normal;text-anchor:start;" transform="rotate(-0, 297.216, 94.464)" x="297.216" y="94.464">1</text>
   </g>
   <g id="text_8">
    <text style="font-family:Arial;font-size:16px;font-style:normal;font-weight:normal;text-anchor:end;" transform="rotate(-0, 278.784, 94.464)" x="278.784" y="94.464">30086</text>
   </g>
   <g id="text_9">
    <text style="font-family:Arial;font-size:15px;font-style:normal;font-weight:normal;text-anchor:middle;" transform="rotate(-0, 288, 288)" x="288" y="288">Broecker_Sample_ID29</text>
   </g>
  </g>
 </g>
 <defs>
  <clipPath id="pf87f174392">
   <rect height="460.8" width="460.8" x="57.6" y="57.6"/>
  </clipPath>
 </defs>
</svg>
